<svg width="175" height="33" viewBox="0 0 175 33" fill="none" xmlns="http://www.w3.org/2000/svg">
<path d="M7.908 9.044L15.828 0.799998H25.008L14.964 11.276L25.584 26H16.116L9.852 16.424L7.908 18.476V26H0.06V0.799998H7.908V9.044ZM34.0187 13.94H26.9267C27.0707 12.236 27.6827 10.82 28.7627 9.692C30.3227 8.06 32.8907 7.244 36.4667 7.244C40.0187 7.244 42.5387 7.952 44.0267 9.368C45.2747 10.568 45.8987 12.308 45.8987 14.588V22.832C45.8987 23.912 45.9827 24.608 46.1507 24.92C46.3187 25.28 46.6547 25.556 47.1587 25.748V26H39.0227L38.5547 24.02H38.4827C37.8587 24.764 37.1147 25.352 36.2507 25.784C35.1227 26.36 33.7547 26.648 32.1467 26.648C30.0587 26.648 28.5227 26.18 27.5387 25.244C26.5067 24.26 25.9907 22.94 25.9907 21.284C25.9907 19.82 26.4467 18.632 27.3587 17.72C28.4147 16.664 30.0587 16.004 32.2907 15.74L34.4507 15.488C35.3147 15.392 35.8907 15.32 36.1787 15.272C36.4667 15.224 36.7667 15.152 37.0787 15.056C37.3907 14.96 37.6307 14.84 37.7987 14.696C38.1587 14.336 38.3387 13.88 38.3387 13.328C38.3387 12.752 38.1827 12.356 37.8707 12.14C37.4867 11.804 36.9587 11.636 36.2867 11.636C35.5427 11.636 34.9787 11.828 34.5947 12.212C34.1627 12.644 33.9707 13.22 34.0187 13.94ZM38.3387 18.188V17.72C37.7627 18.128 37.0427 18.392 36.1787 18.512C35.0747 18.704 34.3547 18.992 34.0187 19.376C33.7307 19.712 33.5867 20.096 33.5867 20.528C33.5867 21.008 33.7427 21.404 34.0547 21.716C34.3667 22.028 34.7867 22.184 35.3147 22.184C36.1547 22.184 36.8387 21.908 37.3667 21.356C38.0147 20.66 38.3387 19.604 38.3387 18.188ZM48.0511 12.68V7.712H51.3631V2.312H58.9231V7.712H62.8111V12.68H58.9231V18.728C58.9231 19.712 59.0911 20.372 59.4271 20.708C59.7631 21.044 60.3271 21.212 61.1191 21.212C61.6231 21.212 62.1871 21.128 62.8111 20.96V26.036C61.4431 26.372 59.8951 26.54 58.1671 26.54C55.5751 26.54 53.7751 26.036 52.7671 25.028C51.8311 24.092 51.3631 22.592 51.3631 20.528V12.68H48.0511ZM78.3057 20.708H85.7217C85.0017 22.748 83.7897 24.272 82.0857 25.28C80.5017 26.192 78.2817 26.648 75.4257 26.648C73.6497 26.648 72.1137 26.48 70.8177 26.144C69.5217 25.832 68.3577 25.16 67.3257 24.128C65.6697 22.472 64.8417 20.228 64.8417 17.396C64.8417 14.42 65.7537 11.96 67.5777 10.016C69.4737 8.048 72.1137 7.064 75.4977 7.064C79.0737 7.064 81.7377 7.964 83.4897 9.764C84.2577 10.556 84.8337 11.516 85.2177 12.644C85.6257 13.748 85.8537 14.648 85.9017 15.344C85.9737 16.04 86.0097 16.904 86.0097 17.936V18.368H72.5817C72.5337 19.496 72.7617 20.42 73.2657 21.14C73.7937 21.836 74.5617 22.184 75.5697 22.184C76.3137 22.184 76.9137 22.064 77.3697 21.824C77.8737 21.536 78.1857 21.164 78.3057 20.708ZM72.6177 14.768H78.2337C78.2337 13.664 77.9697 12.848 77.4417 12.32C76.9857 11.816 76.3617 11.564 75.5697 11.564C74.6577 11.564 73.9737 11.828 73.5177 12.356C72.9657 12.932 72.6657 13.736 72.6177 14.768ZM104.133 7.316V13.112C103.461 12.992 102.801 12.932 102.153 12.932C100.521 12.932 99.2495 13.388 98.3375 14.3C97.4495 15.212 97.0055 16.856 97.0055 19.232V26H89.4455V7.712H96.6815V10.304C97.3295 9.32 98.1575 8.552 99.1655 8C100.149 7.472 101.397 7.208 102.909 7.208C103.293 7.208 103.701 7.244 104.133 7.316ZM108.427 32.228V27.368C109.051 27.608 109.723 27.728 110.443 27.728C111.235 27.728 111.835 27.572 112.243 27.26C112.723 26.924 113.035 26.408 113.179 25.712L113.359 24.92L106.195 7.712H113.827L117.463 19.124L120.343 7.712H127.363L120.919 25.712C120.151 27.896 119.455 29.396 118.831 30.212C118.615 30.452 118.399 30.68 118.183 30.896C116.887 32.096 115.015 32.696 112.567 32.696C111.199 32.696 109.819 32.54 108.427 32.228ZM136.935 7.712V9.656H137.079C137.703 8.912 138.483 8.324 139.419 7.892C140.475 7.412 141.651 7.172 142.947 7.172C145.083 7.172 146.763 7.736 147.987 8.864C148.731 9.608 149.223 10.46 149.463 11.42C149.727 12.356 149.859 13.556 149.859 15.02V26H142.299V16.208C142.299 15.032 142.107 14.132 141.723 13.508C141.315 12.884 140.739 12.572 139.995 12.572C139.131 12.572 138.459 12.92 137.979 13.616C137.499 14.288 137.259 15.176 137.259 16.28V26H129.699V7.712H136.935ZM161.179 13.94H154.087C154.231 12.236 154.843 10.82 155.923 9.692C157.483 8.06 160.051 7.244 163.627 7.244C167.179 7.244 169.699 7.952 171.187 9.368C172.435 10.568 173.059 12.308 173.059 14.588V22.832C173.059 23.912 173.143 24.608 173.311 24.92C173.479 25.28 173.815 25.556 174.319 25.748V26H166.183L165.715 24.02H165.643C165.019 24.764 164.275 25.352 163.411 25.784C162.283 26.36 160.915 26.648 159.307 26.648C157.219 26.648 155.683 26.18 154.699 25.244C153.667 24.26 153.151 22.94 153.151 21.284C153.151 19.82 153.607 18.632 154.519 17.72C155.575 16.664 157.219 16.004 159.451 15.74L161.611 15.488C162.475 15.392 163.051 15.32 163.339 15.272C163.627 15.224 163.927 15.152 164.239 15.056C164.551 14.96 164.791 14.84 164.959 14.696C165.319 14.336 165.499 13.88 165.499 13.328C165.499 12.752 165.343 12.356 165.031 12.14C164.647 11.804 164.119 11.636 163.447 11.636C162.703 11.636 162.139 11.828 161.755 12.212C161.323 12.644 161.131 13.22 161.179 13.94ZM165.499 18.188V17.72C164.923 18.128 164.203 18.392 163.339 18.512C162.235 18.704 161.515 18.992 161.179 19.376C160.891 19.712 160.747 20.096 160.747 20.528C160.747 21.008 160.903 21.404 161.215 21.716C161.527 22.028 161.947 22.184 162.475 22.184C163.315 22.184 163.999 21.908 164.527 21.356C165.175 20.66 165.499 19.604 165.499 18.188Z" fill="#1A1A29"/>
</svg>
