<svg width="136" height="27" viewBox="0 0 136 27" fill="none" xmlns="http://www.w3.org/2000/svg">
<path d="M18.816 19.34V26H0.06V0.799998H7.908V19.34H18.816ZM21.3478 7.712H28.9078V26H21.3478V7.712ZM21.3478 5.552V0.799998H28.9078V5.552H21.3478ZM32.1422 19.988H39.5222C39.4022 20.804 39.5822 21.452 40.0622 21.932C40.4702 22.34 41.0822 22.544 41.8982 22.544C42.7142 22.544 43.3262 22.412 43.7342 22.148C44.2622 21.836 44.5262 21.416 44.5262 20.888C44.5262 20.288 44.2262 19.844 43.6262 19.556C43.2182 19.364 42.4142 19.184 41.2142 19.016L39.3422 18.728C36.9422 18.368 35.2742 17.78 34.3382 16.964C33.3302 16.052 32.8262 14.864 32.8262 13.4C32.8262 11.36 33.6662 9.752 35.3462 8.576C36.9062 7.544 39.1502 7.028 42.0782 7.028C44.8382 7.028 46.9142 7.484 48.3062 8.396C49.8182 9.38 50.6462 10.892 50.7902 12.932H44.3462C44.3942 12.26 44.2142 11.72 43.8062 11.312C43.4222 10.928 42.7982 10.736 41.9342 10.736C41.2382 10.736 40.6982 10.88 40.3142 11.168C39.8822 11.504 39.6662 11.912 39.6662 12.392C39.6662 12.896 39.9302 13.268 40.4582 13.508C40.8902 13.748 41.6462 13.94 42.7262 14.084L45.2462 14.444C47.3822 14.732 48.9662 15.356 49.9982 16.316C51.0302 17.348 51.5462 18.644 51.5462 20.204C51.5462 22.34 50.7302 23.972 49.0982 25.1C47.5622 26.156 45.1622 26.684 41.8982 26.684C40.0022 26.684 38.4062 26.528 37.1102 26.216C35.8382 25.904 34.7702 25.304 33.9062 24.416C32.7542 23.216 32.1662 21.74 32.1422 19.988ZM62.0174 7.712V9.656H62.1614C62.7854 8.912 63.5654 8.324 64.5014 7.892C65.5574 7.412 66.7334 7.172 68.0294 7.172C70.1654 7.172 71.8454 7.736 73.0694 8.864C73.8134 9.608 74.3054 10.46 74.5454 11.42C74.8094 12.356 74.9414 13.556 74.9414 15.02V26H67.3814V16.208C67.3814 15.032 67.1894 14.132 66.8054 13.508C66.3974 12.884 65.8214 12.572 65.0774 12.572C64.2134 12.572 63.5414 12.92 63.0614 13.616C62.5814 14.288 62.3414 15.176 62.3414 16.28V26H54.7814V7.712H62.0174ZM79.6369 7.712H87.1969V26H79.6369V7.712ZM79.6369 5.552V0.799998H87.1969V5.552H79.6369ZM98.4953 13.94H91.4033C91.5473 12.236 92.1593 10.82 93.2393 9.692C94.7993 8.06 97.3673 7.244 100.943 7.244C104.495 7.244 107.015 7.952 108.503 9.368C109.751 10.568 110.375 12.308 110.375 14.588V22.832C110.375 23.912 110.459 24.608 110.627 24.92C110.795 25.28 111.131 25.556 111.635 25.748V26H103.499L103.031 24.02H102.959C102.335 24.764 101.591 25.352 100.727 25.784C99.5993 26.36 98.2313 26.648 96.6233 26.648C94.5353 26.648 92.9993 26.18 92.0153 25.244C90.9833 24.26 90.4673 22.94 90.4673 21.284C90.4673 19.82 90.9233 18.632 91.8353 17.72C92.8913 16.664 94.5353 16.004 96.7673 15.74L98.9273 15.488C99.7913 15.392 100.367 15.32 100.655 15.272C100.943 15.224 101.243 15.152 101.555 15.056C101.867 14.96 102.107 14.84 102.275 14.696C102.635 14.336 102.815 13.88 102.815 13.328C102.815 12.752 102.659 12.356 102.347 12.14C101.963 11.804 101.435 11.636 100.763 11.636C100.019 11.636 99.4553 11.828 99.0713 12.212C98.6393 12.644 98.4473 13.22 98.4953 13.94ZM102.815 18.188V17.72C102.239 18.128 101.519 18.392 100.655 18.512C99.5513 18.704 98.8313 18.992 98.4953 19.376C98.2073 19.712 98.0633 20.096 98.0633 20.528C98.0633 21.008 98.2193 21.404 98.5312 21.716C98.8433 22.028 99.2633 22.184 99.7913 22.184C100.631 22.184 101.315 21.908 101.843 21.356C102.491 20.66 102.815 19.604 102.815 18.188ZM122.248 13.4L127.18 7.712H135.568L128.26 15.092L135.748 26H127.36L123.58 19.52L122.248 20.888V26H114.688V0.799998H122.248V13.4Z" fill="#1A1A29"/>
</svg>
