<svg aria-hidden="true" style="position: absolute; width: 0; height: 0; overflow: hidden;"
    version="1.1" xmlns="http://www.w3.org/2000/svg" xmlns:xlink="http://www.w3.org/1999/xlink">
    <defs>
        <symbol id="icon-arrow-left" viewBox="0 0 48 32">
            <path stroke-linejoin="miter" stroke-linecap="butt" stroke-miterlimit="4"
                stroke-width="4.8" d="M46.4 16h-40M6.4 16l12.8 12.8M6.4 16l12.8-12.8"></path>
        </symbol>
        <symbol id="icon-arrow-right" viewBox="0 0 45 32">
            <path stroke-linejoin="miter" stroke-linecap="butt" stroke-miterlimit="4"
                stroke-width="4.8" d="M0 16h40M40 16l-12.8-12.8M40 16l-12.8 12.8"></path>
        </symbol>
        <symbol id="icon-btn-to-up" viewBox="0 0 28 32">
            <path
                d="M1.073 13.793l13.272-13.763 13.21 13.823-0.798 0.761-11.865-12.414-0.066 28.728-1.103-0.003 0.066-28.728-11.923 12.362-0.794-0.767z"></path>
        </symbol>
        <symbol id="icon-discord" viewBox="0 0 32 32">
            <path
                d="M13.184 13.424c-0.912 0-1.632 0.8-1.632 1.776s0.736 1.776 1.632 1.776c0.912 0 1.632-0.8 1.632-1.776 0.016-0.976-0.72-1.776-1.632-1.776zM19.024 13.424c-0.912 0-1.632 0.8-1.632 1.776s0.736 1.776 1.632 1.776c0.912 0 1.632-0.8 1.632-1.776s-0.72-1.776-1.632-1.776z"></path>
            <path
                d="M26.8 0h-21.44c-1.808 0-3.28 1.472-3.28 3.296v21.632c0 1.824 1.472 3.296 3.28 3.296h18.144l-0.848-2.96 2.048 1.904 1.936 1.792 3.44 3.040v-28.704c0-1.824-1.472-3.296-3.28-3.296zM20.624 20.896s-0.576-0.688-1.056-1.296c2.096-0.592 2.896-1.904 2.896-1.904-0.656 0.432-1.28 0.736-1.84 0.944-0.8 0.336-1.568 0.56-2.32 0.688-1.536 0.288-2.944 0.208-4.144-0.016-0.912-0.176-1.696-0.432-2.352-0.688-0.368-0.144-0.768-0.32-1.168-0.544-0.048-0.032-0.096-0.048-0.144-0.080-0.032-0.016-0.048-0.032-0.064-0.048-0.288-0.16-0.448-0.272-0.448-0.272s0.768 1.28 2.8 1.888c-0.48 0.608-1.072 1.328-1.072 1.328-3.536-0.112-4.88-2.432-4.88-2.432 0-5.152 2.304-9.328 2.304-9.328 2.304-1.728 4.496-1.68 4.496-1.68l0.16 0.192c-2.88 0.832-4.208 2.096-4.208 2.096s0.352-0.192 0.944-0.464c1.712-0.752 3.072-0.96 3.632-1.008 0.096-0.016 0.176-0.032 0.272-0.032 0.525-0.075 1.132-0.118 1.749-0.118 2.311 0 4.482 0.601 6.365 1.656l-0.066-0.034s-1.264-1.2-3.984-2.032l0.224-0.256s2.192-0.048 4.496 1.68c0 0 2.304 4.176 2.304 9.328 0 0-1.36 2.32-4.896 2.432z"></path>
        </symbol>
        <symbol id="icon-telegram" viewBox="0 0 32 32">
            <path
                d="M15.925 0c-8.804 0.043-15.925 7.19-15.925 16 0 8.837 7.164 16 16 16 0.026 0 0.053-0 0.079-0h-0.004c8.804-0.043 15.925-7.19 15.925-16 0-8.837-7.164-16-16-16-0.026 0-0.053 0-0.079 0h0.004zM22.541 9.632c0.007-0 0.015-0 0.023-0 0.224 0 0.431 0.070 0.601 0.19l-0.003-0.002c0.128 0.11 0.208 0.266 0.227 0.432 0.022 0.125 0.048 0.41 0.027 0.63-0.24 2.531-1.283 8.669-1.813 11.502-0.224 1.2-0.666 1.6-1.094 1.64-0.928 0.086-1.632-0.613-2.533-1.203-1.408-0.923-2.203-1.498-3.571-2.4-1.579-1.040-0.555-1.613 0.344-2.546 0.237-0.246 4.33-3.97 4.41-4.307 0.010-0.043 0.019-0.2-0.074-0.283-0.094-0.082-0.234-0.054-0.333-0.032-0.141 0.032-2.39 1.52-6.749 4.461-0.64 0.44-1.216 0.653-1.734 0.64-0.571-0.011-1.67-0.322-2.488-0.587-1.002-0.326-1.798-0.498-1.728-1.051 0.035-0.288 0.432-0.582 1.19-0.885-1.642 0.511 1.43-0.839 4.514-2.169l4.816-1.849c4.443-1.848 5.366-2.17 5.968-2.181z"></path>
        </symbol>
        <symbol id="icon-github" viewBox="0 0 32 32">
            <path
                d="M16 0c-2.212 0.001-4.317 0.46-6.224 1.287l0.101-0.039c-2.022 0.874-3.746 2.074-5.185 3.552l-0.003 0.003c-2.9 2.986-4.688 7.066-4.688 11.564 0 0.010 0 0.021 0 0.031v-0.002c0 7.248 4.592 13.397 10.944 15.578 0.8 0.131 1.056-0.378 1.056-0.819v-2.771c-4.432 0.984-5.376-2.197-5.376-2.197-0.736-1.904-1.776-2.411-1.776-2.411-1.456-1.016 0.112-0.984 0.112-0.984 1.6 0.115 2.448 1.69 2.448 1.69 1.392 2.491 3.744 1.754 4.656 1.36 0.144-1.066 0.56-1.787 1.008-2.197-3.552-0.41-7.28-1.821-7.28-8.067 0-1.821 0.608-3.28 1.648-4.443-0.16-0.411-0.72-2.115 0.16-4.33 0 0 1.344-0.443 4.4 1.672 1.186-0.343 2.547-0.541 3.955-0.541 0.016 0 0.031 0 0.047 0h-0.002c1.36 0 2.736 0.181 4 0.541 3.056-2.115 4.4-1.672 4.4-1.672 0.88 2.214 0.32 3.92 0.16 4.33 1.040 1.163 1.648 2.624 1.648 4.443 0 6.264-3.744 7.64-7.312 8.051 0.576 0.507 1.104 1.509 1.104 3.034v4.493c0 0.442 0.256 0.966 1.072 0.819 6.352-2.197 10.928-8.33 10.928-15.578 0-0.002 0-0.003 0-0.005 0-2.259-0.447-4.415-1.258-6.381l0.041 0.111c-0.846-2.065-2.019-3.831-3.472-5.322l0.003 0.003c-1.443-1.481-3.167-2.681-5.087-3.515l-0.103-0.040c-1.806-0.788-3.911-1.247-6.123-1.248h-0z"></path>
        </symbol>
        <symbol id="icon-linkedin" viewBox="0 0 32 32">
            <path
                d="M28.445 0c1.963 0 3.555 1.592 3.555 3.555v0 24.89c0 1.963-1.592 3.555-3.555 3.555v0h-24.89c-1.963 0-3.555-1.592-3.555-3.555v0-24.89c0-1.963 1.592-3.555 3.555-3.555v0h24.89zM27.555 27.555v-9.422c0-3.201-2.595-5.795-5.795-5.795v0c-1.51 0-3.27 0.925-4.125 2.312v-1.974h-4.96v14.88h4.96v-8.765c0-0.002 0-0.005 0-0.008 0-1.367 1.106-2.475 2.472-2.48h0c1.374 0.001 2.487 1.114 2.488 2.488v8.765h4.96zM6.899 9.885c1.648-0.002 2.984-1.339 2.984-2.987 0-0.001 0-0.001 0-0.002v0c0-0.002 0-0.004 0-0.006 0-1.652-1.336-2.991-2.987-2.997h-0.001c-1.659 0-3.005 1.345-3.005 3.005v0c0 1.653 1.352 2.987 3.005 2.987zM9.37 27.555v-14.88h-4.925v14.88h4.925z"></path>
        </symbol>
        <symbol id="icon-facebook" viewBox="0 0 32 32">
            <path
                d="M32 16c0-8.837-7.163-16-16-16s-16 7.163-16 16c0 7.986 5.851 14.605 13.501 15.805v-11.179h-4.064v-4.626h4.064v-3.525c0-4.010 2.387-6.224 6.043-6.224 1.749 0 3.581 0.312 3.581 0.312v3.936h-2.016c-1.989 0-2.608 1.234-2.608 2.501v3h4.437l-0.709 4.624h-3.728v11.181c7.648-1.2 13.499-7.819 13.499-15.805z"></path>
        </symbol>

        <symbol id="icon-download" viewBox="0 0 32 32">
            <path fill="none"
                stroke-linejoin="round" stroke-linecap="round" stroke-miterlimit="4"
                stroke-width="3.2"
                d="M28 20v1.6c0 2.24 0 3.36-0.437 4.216-0.391 0.756-0.992 1.356-1.725 1.737l-0.022 0.011c-0.856 0.437-1.976 0.437-4.216 0.437h-11.2c-2.24 0-3.36 0-4.216-0.437-0.756-0.391-1.358-0.991-1.738-1.725l-0.011-0.022c-0.435-0.856-0.435-1.976-0.435-4.216v-1.6M22.667 13.333l-6.667 6.667M16 20l-6.667-6.667M16 20v-16"></path>
        </symbol>

        <symbol id="icon-Kateryna" viewBox="0 0 170 32">
            <path
                d="M7.668 8.77l7.68-7.994h8.902l-9.74 10.159 10.298 14.278h-9.181l-6.074-9.286-1.885 1.99v7.296h-7.61v-24.436h7.61v7.994zM32.987 13.518h-6.876c0.14-1.652 0.733-3.025 1.78-4.119 1.513-1.583 4.003-2.374 7.471-2.374 3.444 0 5.888 0.687 7.331 2.060 1.21 1.164 1.815 2.851 1.815 5.062v7.994c0 1.047 0.081 1.722 0.244 2.025 0.163 0.349 0.489 0.617 0.977 0.803v0.244h-7.889l-0.454-1.92h-0.070c-0.591 0.705-1.31 1.28-2.126 1.693l-0.038 0.018c-1.094 0.559-2.42 0.838-3.98 0.838-2.025 0-3.514-0.454-4.468-1.361-1.001-0.954-1.501-2.234-1.501-3.84 0-1.42 0.442-2.572 1.327-3.456 1.024-1.024 2.618-1.664 4.783-1.92l2.095-0.244c0.838-0.093 1.396-0.163 1.676-0.209s0.57-0.116 0.873-0.209c0.303-0.093 0.535-0.209 0.698-0.349 0.349-0.349 0.524-0.791 0.524-1.327 0-0.559-0.151-0.943-0.454-1.152-0.372-0.326-0.884-0.489-1.536-0.489-0.721 0-1.268 0.186-1.641 0.559-0.419 0.419-0.605 0.977-0.559 1.676zM37.176 17.637v-0.454c-0.558 0.396-1.256 0.652-2.095 0.768-1.070 0.186-1.768 0.465-2.095 0.838-0.26 0.293-0.418 0.68-0.418 1.104 0 0.004 0 0.009 0 0.013v-0.001c0 0.465 0.151 0.849 0.454 1.152s0.71 0.454 1.222 0.454c0.815 0 1.478-0.268 1.99-0.803 0.628-0.675 0.943-1.699 0.943-3.072zM46.595 12.296v-4.817h3.212v-5.236h7.331v5.236h3.77v4.817h-3.77v5.865c0 0.954 0.163 1.594 0.489 1.92s0.873 0.489 1.641 0.489c0.489 0 1.036-0.081 1.641-0.244v4.922c-1.327 0.326-2.828 0.489-4.503 0.489-2.513 0-4.259-0.489-5.236-1.466-0.908-0.908-1.361-2.362-1.361-4.364v-7.61h-3.212zM75.933 20.081h7.191c-0.698 1.978-1.873 3.456-3.526 4.433-1.536 0.884-3.689 1.327-6.458 1.327-1.722 0-3.212-0.163-4.468-0.489-1.257-0.303-2.385-0.954-3.386-1.955-1.606-1.606-2.409-3.782-2.409-6.528 0-2.886 0.884-5.271 2.653-7.156 1.839-1.908 4.399-2.863 7.68-2.863 3.468 0 6.051 0.873 7.75 2.618 0.745 0.768 1.303 1.699 1.676 2.793 0.396 1.071 0.617 1.943 0.663 2.618 0.070 0.675 0.105 1.513 0.105 2.513v0.419h-13.021c-0.047 1.094 0.175 1.99 0.663 2.688 0.512 0.675 1.257 1.012 2.234 1.012 0.721 0 1.303-0.116 1.745-0.349 0.489-0.279 0.791-0.64 0.908-1.082zM70.417 14.32h5.446c0-1.071-0.256-1.862-0.768-2.374-0.442-0.489-1.047-0.733-1.815-0.733-0.884 0-1.548 0.256-1.99 0.768-0.535 0.559-0.826 1.338-0.873 2.339zM100.977 7.094v5.62c-0.576-0.11-1.24-0.173-1.919-0.175h-0.001c-1.583 0-2.816 0.442-3.7 1.327-0.861 0.884-1.292 2.479-1.292 4.783v6.563h-7.331v-17.734h7.018v2.513c0.611-0.933 1.421-1.687 2.374-2.217l0.034-0.017c0.954-0.512 2.164-0.768 3.631-0.768 0.372 0 0.768 0.035 1.187 0.105zM105.141 31.251v-4.713c0.605 0.233 1.257 0.349 1.955 0.349 0.768 0 1.35-0.151 1.745-0.454 0.465-0.326 0.768-0.826 0.908-1.501l0.175-0.768-6.947-16.687h7.401l3.526 11.066 2.793-11.066h6.807l-6.249 17.455c-0.745 2.118-1.42 3.572-2.025 4.364-0.209 0.233-0.419 0.454-0.628 0.663-1.257 1.164-3.072 1.745-5.446 1.745-1.327 0-2.665-0.151-4.015-0.454zM132.785 7.478v1.885h0.14c0.613-0.721 1.37-1.3 2.229-1.694l0.040-0.016c1.024-0.465 2.164-0.698 3.421-0.698 2.071 0 3.7 0.547 4.887 1.641 0.721 0.721 1.199 1.548 1.431 2.479 0.256 0.908 0.384 2.071 0.384 3.491v10.647h-7.331v-9.495c0-1.14-0.186-2.013-0.559-2.618-0.396-0.605-0.954-0.908-1.676-0.908-0.838 0-1.489 0.337-1.955 1.012-0.465 0.652-0.698 1.513-0.698 2.583v9.425h-7.331v-17.734h7.017zM156.295 13.518h-6.877c0.14-1.652 0.733-3.025 1.78-4.119 1.513-1.583 4.003-2.374 7.471-2.374 3.444 0 5.888 0.687 7.331 2.060 1.21 1.164 1.815 2.851 1.815 5.062v7.994c0 1.047 0.081 1.722 0.244 2.025 0.163 0.349 0.489 0.617 0.977 0.803v0.244h-7.889l-0.454-1.92h-0.070c-0.591 0.705-1.31 1.28-2.126 1.693l-0.038 0.018c-1.094 0.559-2.42 0.838-3.98 0.838-2.025 0-3.514-0.454-4.468-1.361-1.001-0.954-1.501-2.234-1.501-3.84 0-1.42 0.442-2.572 1.327-3.456 1.024-1.024 2.618-1.664 4.783-1.92l2.095-0.244c0.838-0.093 1.396-0.163 1.676-0.209s0.57-0.116 0.873-0.209c0.303-0.093 0.535-0.209 0.698-0.349 0.349-0.349 0.524-0.791 0.524-1.327 0-0.559-0.151-0.943-0.454-1.152-0.372-0.326-0.884-0.489-1.536-0.489-0.721 0-1.268 0.186-1.641 0.559-0.419 0.419-0.605 0.977-0.559 1.676zM160.484 17.637v-0.454c-0.559 0.396-1.257 0.652-2.095 0.768-1.071 0.186-1.769 0.465-2.095 0.838-0.26 0.293-0.419 0.681-0.419 1.105 0 0.004 0 0.008 0 0.012v-0.001c0 0.465 0.151 0.849 0.454 1.152s0.71 0.454 1.222 0.454c0.815 0 1.478-0.268 1.99-0.803 0.628-0.675 0.943-1.699 0.943-3.072z"></path>
        </symbol>
        <symbol id="icon-Lisniak" viewBox="0 0 161 32">
            <path
                d="M22.3 22.921v7.893h-22.229v-29.867h9.301v21.973h12.928zM25.301 9.14h8.96v21.675h-8.96v-21.675zM25.301 6.58v-5.632h8.96v5.632h-8.96zM38.094 23.689h8.747c-0.142 0.967 0.071 1.735 0.64 2.304 0.484 0.484 1.209 0.725 2.176 0.725s1.692-0.156 2.176-0.469c0.626-0.37 0.939-0.868 0.939-1.493 0-0.711-0.356-1.237-1.067-1.579-0.484-0.228-1.436-0.441-2.859-0.64l-2.219-0.341c-2.844-0.427-4.821-1.124-5.931-2.091-1.195-1.081-1.792-2.489-1.792-4.224 0-2.418 0.996-4.324 2.987-5.717 1.849-1.223 4.508-1.835 7.979-1.835 3.271 0 5.732 0.54 7.381 1.621 1.792 1.166 2.773 2.958 2.944 5.376h-7.637c0.057-0.796-0.156-1.436-0.64-1.92-0.455-0.455-1.195-0.683-2.219-0.683-0.825 0-1.465 0.171-1.92 0.512-0.512 0.398-0.768 0.882-0.768 1.451 0 0.597 0.313 1.038 0.939 1.323 0.512 0.284 1.408 0.512 2.688 0.683l2.987 0.427c2.532 0.341 4.409 1.081 5.632 2.219 1.223 1.223 1.835 2.759 1.835 4.608 0 2.532-0.967 4.466-2.901 5.803-1.82 1.252-4.665 1.877-8.533 1.877-2.247 0-4.139-0.185-5.675-0.555-1.508-0.37-2.773-1.081-3.797-2.133-1.365-1.422-2.062-3.172-2.091-5.248zM73.502 9.14v2.304h0.171c0.749-0.881 1.674-1.588 2.724-2.071l0.049-0.020c1.252-0.569 2.645-0.853 4.181-0.853 2.532 0 4.523 0.668 5.973 2.005 0.882 0.882 1.465 1.892 1.749 3.029 0.313 1.109 0.469 2.532 0.469 4.267v13.013h-8.96v-11.605c0-1.394-0.228-2.46-0.683-3.2-0.484-0.74-1.166-1.109-2.048-1.109-1.024 0-1.82 0.412-2.389 1.237-0.569 0.796-0.853 1.849-0.853 3.157v11.52h-8.96v-21.675h8.576zM94.385 9.14h8.96v21.675h-8.96v-21.675zM94.385 6.58v-5.632h8.96v5.632h-8.96zM116.735 16.521h-8.405c0.171-2.020 0.896-3.698 2.176-5.035 1.849-1.934 4.892-2.901 9.131-2.901 4.21 0 7.196 0.839 8.96 2.517 1.479 1.422 2.219 3.484 2.219 6.187v9.771c0 1.28 0.1 2.105 0.299 2.475 0.199 0.427 0.597 0.754 1.195 0.981v0.299h-9.643l-0.555-2.347h-0.085c-0.722 0.861-1.602 1.564-2.599 2.069l-0.047 0.022c-1.337 0.683-2.958 1.024-4.864 1.024-2.475 0-4.295-0.555-5.461-1.664-1.223-1.166-1.835-2.731-1.835-4.693 0-1.735 0.54-3.143 1.621-4.224 1.252-1.252 3.2-2.034 5.845-2.347l2.56-0.299c1.024-0.114 1.707-0.199 2.048-0.256s0.697-0.142 1.067-0.256c0.37-0.114 0.654-0.256 0.853-0.427 0.427-0.427 0.64-0.967 0.64-1.621 0-0.683-0.185-1.152-0.555-1.408-0.455-0.398-1.081-0.597-1.877-0.597-0.882 0-1.55 0.228-2.005 0.683-0.512 0.512-0.74 1.195-0.683 2.048zM121.855 21.556v-0.555c-0.683 0.484-1.536 0.796-2.56 0.939-1.308 0.228-2.162 0.569-2.56 1.024-0.318 0.358-0.512 0.832-0.512 1.351 0 0.005 0 0.010 0 0.015v-0.001c0 0.569 0.185 1.038 0.555 1.408s0.868 0.555 1.493 0.555c0.996 0 1.806-0.327 2.432-0.981 0.768-0.825 1.152-2.076 1.152-3.755zM144.887 15.881l5.845-6.741h9.941l-8.661 8.747 8.875 12.928h-9.941l-4.48-7.68-1.579 1.621v6.059h-8.96v-29.867h8.96v14.933z"></path>
        </symbol>
    </defs>
</svg>